<svg xmlns="http://www.w3.org/2000/svg" xmlns:vectornator="http://vectornator.io" viewBox="0 0 1920 1080" fill-rule="evenodd" clip-rule="evenodd" stroke-linecap="round" stroke-linejoin="round">
  <path d="M0 0h1920v1080H0V0z" fill="#fff" vectornator:layerName="Bg"/>
  <g vectornator:layerName="Camada 1" fill="teal">
    <path d="M820.722 598.338c-54.549 51.12-59.679 163.349 249.998 100 219.07-44.815 233.75 172.672 350 150 98.15-19.143-65.68-650-265.68-500-200.004 150-279.769 198.879-334.318 250zM1450 800v-50 50zM439.719 840.562c-133.715 1.902-269.591 41.296-233.938 144.876 12.301 35.732 22.483 66.272 31.844 94.562h238.469c48.559-113.226 182.738-91.025 193.156-175.281 4.741-38.341-111.548-65.835-229.531-64.157z"/>
    <path d="M1269.72 100.541c-74.67 3.552-151.34 85.669 125.5 238.225 195.84 107.919 66 283.017 169.21 341.127 87.13 49.064 371.43-537.451 121.91-552.925-249.52-15.474-341.94-29.978-416.62-26.427z"/>
    <path d="M1890.78 400.062c-30.38-2.012-72.74 41.448-114.66 190.907-49.93 178.069-198.08 101.143-225.31 195.187-17.4 60.101 249.59 151.687 369.19 103.156V419.656c-7.47-11.008-17.38-18.81-29.22-19.594zM1144.03 750c-8.47-.013-17.54 1.176-27.22 3.688-206.447 53.576-285.235 66.335-344.841 88.968-59.607 22.633-99.933 109.157 165.156 158.904 67.275 12.63 102.785 43.37 125.345 78.44h177.5c23.76-141.272 10.12-329.832-95.94-330zM693 976.625c-31.711 1.214-56.755 28.115-34.375 103.375H874c-65.847-46.21-106.524-75.16-141.688-93.625-12.348-6.485-26.381-10.245-39.312-9.75zM663.28 799.856c74.736-1.873 153.233-82.247-120.111-240.984-193.366-112.293-59.631-284.429-161.502-344.844-86.012-51.009-383.4125 528.971-134.303 550.047 249.11 21.077 341.181 37.653 415.916 35.781zM38 800.031c-3.6768.059-7.455.256-11.3438.625-9.6082.914-17.50319 1.592-26.6562 2.438V1080h139.312C164.52 938.514 150.017 798.248 38 800.031zM1465.69 917c-74.29-1.942-130.05 19.169-124.69 81.75 2.61 30.45 4.63 56.71 6.44 81.25h422.65c11.91-5.95 21.41-14.62 27.38-28.03 19.37-43.55-189.97-131.263-331.78-134.97z"/>
    <path d="M1125.27 261.118c50.9-54.752 48.3-167.0687-256.29-82.563-215.467 59.78-245.078-156.181-359.49-125.5647C412.889 78.8404 619.74 696.931 808.946 533.526 998.152 370.122 1074.37 315.87 1125.27 261.118zM149.781 50.0312C117.937 49.011 69.4633 72.5354 0 139.375v541.844c21.6893-11.857 39.0796-33.963 50.2188-68.938C138.287 335.766 179.278 236.405 197.812 150.812c9.847-45.471-1.328-99.2844-48.031-100.7808zM266.938 0c4.615 61.2189-28.044 116.635 21.281 150 32.373 21.899 123.179-57.6147 184.812-150H266.938z"/>
    <path d="M611.438 0c79.949 79.8814 217.634 153.236 348.843 106.594C1109.88 53.4144 1201.19 23.0301 1267.28 0H611.438zM1361.69 0c42.14 22.807 123.92 39.5034 267.43 38.875 200.81-.8792 224.95 130.938 290.88 188.813V0h-558.31z"/>
  </g>
</svg>
