<?xml version="1.0" encoding="UTF-8" standalone="no"?> <!-- Created with Vectornator for iOS (http://vectornator.io/) --><!DOCTYPE svg PUBLIC "-//W3C//DTD SVG 1.1//EN" "http://www.w3.org/Graphics/SVG/1.1/DTD/svg11.dtd">
<svg height="100%" style="fill-rule:evenodd;clip-rule:evenodd;stroke-linecap:round;stroke-linejoin:round;" xmlns:xlink="http://www.w3.org/1999/xlink" xmlns="http://www.w3.org/2000/svg" xml:space="preserve" width="100%" xmlns:vectornator="http://vectornator.io" version="1.1" viewBox="0 0 1920 1080">
<metadata>
<vectornator:setting key="DisplayWhiteBackground" value="1"/>
<vectornator:setting key="RulersVisible" value="1"/>
<vectornator:setting key="GridSpacing" value="50"/>
<vectornator:setting key="Units" value="Pixels"/>
<vectornator:setting key="DynamicGuides" value="1"/>
<vectornator:setting key="SnapToPoints" value="1"/>
<vectornator:setting key="CMYKEnabledKey" value="0"/>
<vectornator:setting key="SnapToGrid" value="1"/>
<vectornator:setting key="SnapToGuides" value="1"/>
<vectornator:setting key="ShowGrid" value="1"/>
<vectornator:setting key="SnapToEdges" value="1"/>
</metadata>
<defs/>
<g id="Bg" vectornator:layerName="Bg">
<path d="M0+0L1920+0L1920+1080L0+1080L0+0Z" opacity="1" fill="#ffffff"/>
</g>
<g id="Camada 1" vectornator:layerName="Camada 1">
<path d="M820.722+598.338C766.173+649.458+761.043+761.687+1070.72+698.338C1289.79+653.523+1304.47+871.01+1420.72+848.338C1518.87+829.195+1355.04+198.338+1155.04+348.338C955.036+498.338+875.271+547.217+820.722+598.338Z" opacity="1" fill="#008080"/>
<path d="M1450+800C1450+772.386+1450+750+1450+750C1450+750+1450+772.386+1450+800C1450+827.614+1450+850+1450+850C1450+850+1450+827.614+1450+800Z" opacity="1" fill="#008080"/>
<path d="M439.719+840.562C306.004+842.464+170.128+881.858+205.781+985.438C218.082+1021.17+228.264+1051.71+237.625+1080L476.094+1080C524.653+966.774+658.832+988.975+669.25+904.719C673.991+866.378+557.702+838.884+439.719+840.562Z" opacity="1" fill="#008080"/>
<path d="M1269.72+100.541C1195.05+104.093+1118.38+186.21+1395.22+338.766C1591.06+446.685+1461.22+621.783+1564.43+679.893C1651.56+728.957+1935.86+142.442+1686.34+126.968C1436.82+111.494+1344.4+96.99+1269.72+100.541Z" opacity="1" fill="#008080"/>
<path d="M1890.78+400.062C1860.4+398.05+1818.04+441.51+1776.12+590.969C1726.19+769.038+1578.04+692.112+1550.81+786.156C1533.41+846.257+1800.4+937.843+1920+889.312L1920+419.656C1912.53+408.648+1902.62+400.846+1890.78+400.062Z" opacity="1" fill="#008080"/>
<path d="M1144.03+750C1135.56+749.987+1126.49+751.176+1116.81+753.688C910.363+807.264+831.575+820.023+771.969+842.656C712.362+865.289+672.036+951.813+937.125+1001.56C1004.4+1014.19+1039.91+1044.93+1062.47+1080L1239.97+1080C1263.73+938.728+1250.09+750.168+1144.03+750Z" opacity="1" fill="#008080"/>
<path d="M693+976.625C661.289+977.839+636.245+1004.74+658.625+1080L874+1080C808.153+1033.79+767.476+1004.84+732.312+986.375C719.964+979.89+705.931+976.13+693+976.625Z" opacity="1" fill="#008080"/>
<path d="M663.28+799.856C738.016+797.983+816.513+717.609+543.169+558.872C349.803+446.579+483.538+274.443+381.667+214.028C295.655+163.019-1.7455+742.999+247.364+764.075C496.474+785.152+588.545+801.728+663.28+799.856Z" opacity="1" fill="#008080"/>
<path d="M38+800.031C34.3232+800.09+30.545+800.287+26.6562+800.656C17.048+801.57+9.15301+802.248-0+803.094L0+1080L139.312+1080C164.52+938.514+150.017+798.248+38+800.031Z" opacity="1" fill="#008080"/>
<path d="M1465.69+917C1391.4+915.058+1335.64+936.169+1341+998.75C1343.61+1029.2+1345.63+1055.46+1347.44+1080L1770.09+1080C1782+1074.05+1791.5+1065.38+1797.47+1051.97C1816.84+1008.42+1607.5+920.707+1465.69+917Z" opacity="1" fill="#008080"/>
<path d="M1125.27+261.118C1176.17+206.366+1173.57+94.0493+868.98+178.555C653.513+238.335+623.902+22.374+509.49+52.9903C412.889+78.8404+619.74+696.931+808.946+533.526C998.152+370.122+1074.37+315.87+1125.27+261.118Z" opacity="1" fill="#008080"/>
<path d="M149.781+50.0312C117.937+49.011+69.4633+72.5354-0+139.375L0+681.219C21.6893+669.362+39.0796+647.256+50.2188+612.281C138.287+335.766+179.278+236.405+197.812+150.812C207.659+105.341+196.484+51.5276+149.781+50.0312Z" opacity="1" fill="#008080"/>
<path d="M266.938+0C271.553+61.2189+238.894+116.635+288.219+150C320.592+171.899+411.398+92.3853+473.031+0L266.938+0Z" opacity="1" fill="#008080"/>
<path d="M611.438+0C691.387+79.8814+829.072+153.236+960.281+106.594C1109.88+53.4144+1201.19+23.0301+1267.28+0L611.438+0Z" opacity="1" fill="#008080"/>
<path d="M1361.69+0C1403.83+22.807+1485.61+39.5034+1629.12+38.875C1829.93+37.9958+1854.07+169.813+1920+227.688L1920+0L1361.69+0Z" opacity="1" fill="#008080"/>
</g>
</svg>
