<svg width="37" height="10" viewBox="0 0 37 10" fill="none" xmlns="http://www.w3.org/2000/svg">
<path d="M10.5 5C10.5 7.4415 8.30734 9.5 5.5 9.5C2.69266 9.5 0.5 7.4415 0.5 5C0.5 2.5585 2.69266 0.5 5.5 0.5C8.30734 0.5 10.5 2.5585 10.5 5Z" fill="#FF0000" stroke="#FF0000"/>
<path d="M23.5 5C23.5 7.4415 21.3073 9.5 18.5 9.5C15.6927 9.5 13.5 7.4415 13.5 5C13.5 2.5585 15.6927 0.5 18.5 0.5C21.3073 0.5 23.5 2.5585 23.5 5Z" fill="#00FF00" stroke="#00FF00"/>
<path d="M36.5 5C36.5 7.4415 34.3073 9.5 31.5 9.5C28.6927 9.5 26.5 7.4415 26.5 5C26.5 2.5585 28.6927 0.5 31.5 0.5C34.3073 0.5 36.5 2.5585 36.5 5Z" fill="#0000FF" stroke="#0000FF"/>
</svg>
