<?xml version="1.0" standalone="no"?>
<!DOCTYPE svg PUBLIC "-//W3C//DTD SVG 20010904//EN"
 "http://www.w3.org/TR/2001/REC-SVG-20010904/DTD/svg10.dtd">
<svg version="1.0" xmlns="http://www.w3.org/2000/svg"
 width="700.000000pt" height="700.000000pt" viewBox="0 0 700.000000 700.000000"
 preserveAspectRatio="xMidYMid meet">
<metadata>
Created by potrace 1.11, written by Peter Selinger 2001-2013
</metadata>
<g transform="translate(0.000000,700.000000) scale(0.100000,-0.100000)"
fill="#000000" stroke="none">
<path d="M522 6980 c-192 -51 -360 -186 -445 -360 -85 -172 -77 141 -75 -3186
l3 -2969 26 -67 c59 -150 180 -297 307 -370 l47 -28 3115 0 3115 0 47 28 c127
73 248 220 307 370 l26 67 3 2969 2 2970 -20 75 c-68 247 -262 439 -506 501
-76 20 -124 20 -2978 19 -2820 0 -2903 -1 -2974 -19z m4424 -2757 l-724 -1448
-1446 -722 -1446 -723 723 1446 722 1446 1445 723 c795 398 1446 724 1448 724
1 1 -324 -650 -722 -1446z"/>
</g>
</svg>
